<?xml version="1.0" ?><!DOCTYPE svg  PUBLIC '-//W3C//DTD SVG 1.1//EN'  'http://www.w3.org/Graphics/SVG/1.1/DTD/svg11.dtd'><svg height="32px" id="Layer_1" style="enable-background:new 0 0 32 32;" version="1.1" viewBox="0 0 32 32" width="32px" xml:space="preserve" xmlns="http://www.w3.org/2000/svg" xmlns:xlink="http://www.w3.org/1999/xlink"><g transform="translate(288 288)"><path d="M-272.841-271.525l7.978,13.815c-2.146,1.067-4.553,1.685-7.111,1.685c-8.836,0-16-7.164-16-16   c0-8.498,6.633-15.431,15-15.949v15.949c0,0.172,0.045,0.344,0.137,0.5H-272.841z M-256.026-273.025h-14.949v-14.949   C-262.94-287.477-256.524-281.063-256.026-273.025z M-268.976-275.025h10.655c-1.161-5.312-5.346-9.494-10.655-10.656V-275.025z    M-263.127-258.7c4.049-2.692,6.782-7.182,7.102-12.325h-14.219L-263.127-258.7z"/></g></svg>