<svg version="1.1" viewBox="0.0 0.0 1280.0 720.0" fill="none" stroke="none" stroke-linecap="square" stroke-miterlimit="10" xmlns:xlink="http://www.w3.org/1999/xlink" xmlns="http://www.w3.org/2000/svg"><clipPath id="p1.0"><path d="m0 0l1280.0 0l0 720.0l-1280.0 0l0 -720.0z" clip-rule="nonzero"/></clipPath><g clip-path="url(#p1.0)"><path fill="#ffffff" d="m0 0l1280.0 0l0 720.0l-1280.0 0z" fill-rule="evenodd"/><path fill="#ffffff" d="m25.657705 357.60846l0 0c0 -97.05588 277.13364 -175.7352 618.9953 -175.7352l0 0c341.86163 0 618.9953 78.67932 618.9953 175.7352l0 0c0 97.05585 -277.13367 175.73517 -618.9953 175.73517l0 0c-341.86166 0 -618.9953 -78.67932 -618.9953 -175.73517z" fill-rule="evenodd"/><path stroke="#00b0f0" stroke-width="2.0" stroke-miterlimit="800.0" stroke-linecap="butt" d="m25.657705 357.60846l0 0c0 -97.05588 277.13364 -175.7352 618.9953 -175.7352l0 0c341.86163 0 618.9953 78.67932 618.9953 175.7352l0 0c0 97.05585 -277.13367 175.73517 -618.9953 175.73517l0 0c-341.86166 0 -618.9953 -78.67932 -618.9953 -175.73517z" fill-rule="evenodd"/><path fill="#00b0f0" d="m519.0277 475.26944l0 0c-236.50327 0 -428.22705 -53.055664 -428.22705 -118.50311c0 -65.44748 191.72379 -118.50313 428.22705 -118.50313l0 0c-134.7876 27.974808 -214.11353 71.87846 -214.11353 118.50313c0 46.624664 79.32593 90.52832 214.11353 118.50311z" fill-rule="evenodd"/><path fill="#00b0f0" d="m975.02924 358.73013l0 0c0 -58.010162 48.533875 -105.03671 108.4035 -105.03671l0 0c28.750366 0 56.32312 11.066345 76.65271 30.764526c20.32959 19.698212 31.75061 46.414734 31.75061 74.27219l0 0c0 58.010193 -48.533813 105.03671 -108.40332 105.03671l0 0c-59.86963 0 -108.4035 -47.02652 -108.4035 -105.03671z" fill-rule="evenodd"/><path fill="#00b0f0" d="m1000.0124 461.861l0 0c-232.78467 0 -421.4939 -43.007263 -421.4939 -96.05939c0 -53.052094 188.70923 -96.05936 421.4939 -96.05936l0 0c-154.0705 19.204681 -249.88684 56.037598 -249.88684 96.05936c0 40.02179 95.816345 76.854706 249.88684 96.05939z" fill-rule="evenodd"/><path fill="#00b0f0" d="m550.13446 288.09467l0 0c1.4684448 84.12845 -36.916748 153.01886 -85.73584 153.871c-48.81903 0.85214233 -89.585144 -66.65668 -91.05359 -150.78516l0 0c23.856842 40.986755 56.177307 63.815155 89.52536 63.233063c33.348083 -0.5820923 64.85214 -24.524567 87.26407 -66.31891z" fill-rule="evenodd"/><path fill="#00b0f0" d="m748.85596 295.09784l0 0c-32.33606 77.67969 -95.091675 125.44 -140.16858 106.67566c-45.076843 -18.764343 -55.405334 -96.94772 -23.069275 -174.62741l0 0c0.8386841 52.291718 20.231445 90.93396 52.344116 104.301636c32.11267 13.367706 73.197205 -0.09939575 110.89374 -36.349884z" fill-rule="evenodd"/><path fill="#00b0f0" d="m747.99994 341.6276l193.53601 24.174103l-193.53601 24.174103z" fill-rule="evenodd"/><path fill="#ffffff" d="m1046.6094 304.32394l0 0c0 -20.602173 18.37146 -37.30356 41.033936 -37.30356l0 0c22.662354 0 41.033813 16.701385 41.033813 37.30356l0 0c0 20.602173 -18.37146 37.30356 -41.033813 37.30356l0 0c-22.662476 0 -41.033936 -16.701385 -41.033936 -37.30356z" fill-rule="evenodd"/></g></svg>