<?xml version="1.0" ?><svg enable-background="new 0 0 800 800" id="Layer_1" version="1.1" viewBox="0 0 800 800" xml:space="preserve" xmlns="http://www.w3.org/2000/svg" xmlns:xlink="http://www.w3.org/1999/xlink"><g><path d="M240,661.3h96v85.3c0,11.7,6.4,22.4,16,27.7c5.3,3.2,10.7,4.3,16,4.3c5.3,0,11.7-1.1,17.1-4.3l192-117.3   c9.6-6.4,14.9-17.1,14.9-27.7V74.7c0,0,0,0,0-1.1c0-2.1,0-4.3-1.1-6.4c0,0,0,0,0-1.1v-1.1c-1.1-2.1-1.1-4.3-2.1-6.4   c0,0,0-1.1-1.1-1.1c-1.1-2.1-3.2-4.3-4.3-5.3l-1.1-1.1c-2.1-2.1-3.2-3.2-5.3-4.3l0,0l0,0c-2.1-1.1-4.3-2.1-7.5-3.2h-1.1   c-4.3-1.1-6.4-1.1-8.5-1.1H240c-18.1,0-32,13.9-32,32v554.7C208,647.5,221.9,661.3,240,661.3z M400,210.1l128-77.9v480l-128,77.9   V210.1z"/></g></svg>